# xmcd
#
# Track frame offsets:
#  150
#  31925
#  65111
#  91426
#  127229
#  154033
#  203092
#
# Disc length: 3349 seconds
#
# Revision: 0
# Processed by: cddbd v1.5.1PL2 Copyright (c) Steve Scherf et al.
# Submitted via: Collectorz.com_Music_Collector 6.10
#
DISCID=600d1307
DTITLE=Clapton, Eric - L.A. Forum Show [CD1)
DYEAR=1975
DGENRE=
TTITLE0=Layla
TTITLE1=Further On Up The Road
TTITLE2=Knockin' On Heaven's Door
TTITLE3=Carnival
TTITLE4=Can't Find My Way Home
TTITLE5=Tell The Truth
TTITLE6=Stormy Monday
EXTD=
EXTT0=
EXTT1=
EXTT2=
EXTT3=
EXTT4=
EXTT5=
EXTT6=
PLAYORDER=
